HIERARCHY
ROOT joint_Root
{
	OFFSET 0.0 0.0 0.0
	CHANNELS 6 Xposition Yposition Zposition Zrotation Xrotation Yrotation 
	JOINT Hips
	{
		OFFSET -0.726466 93.3139 -2.00062
		CHANNELS 6 Xposition Yposition Zposition Zrotation Xrotation Yrotation 
		JOINT Spine
		{
			OFFSET 15.7357 0.0 0.0
			CHANNELS 6 Xposition Yposition Zposition Zrotation Xrotation Yrotation 
			JOINT Chest
			{
				OFFSET 8.98455 -0.406207 0.0
				CHANNELS 6 Xposition Yposition Zposition Zrotation Xrotation Yrotation 
				JOINT Neck
				{
					OFFSET 16.3773 0.0 0.0
					CHANNELS 6 Xposition Yposition Zposition Zrotation Xrotation Yrotation 
					JOINT Head
					{
						OFFSET 6.45672 0.0 0.0
						CHANNELS 6 Xposition Yposition Zposition Zrotation Xrotation Yrotation 
						End Site
						{
							OFFSET 0.0 0.0 0.0
						}
					}
				}
				JOINT Shoulder_L
				{
					OFFSET 12.9942 -0.242716 4.98039
					CHANNELS 6 Xposition Yposition Zposition Zrotation Xrotation Yrotation 
					JOINT UpperArm_L
					{
						OFFSET 5.34809 0.0 0.0
						CHANNELS 6 Xposition Yposition Zposition Zrotation Xrotation Yrotation 
						JOINT LowerArm_L
						{
							OFFSET 24.3286 1.87007e-05 0.0
							CHANNELS 6 Xposition Yposition Zposition Zrotation Xrotation Yrotation 
							JOINT Hand_L
							{
								OFFSET 22.2916 0.0 0.0
								CHANNELS 6 Xposition Yposition Zposition Zrotation Xrotation Yrotation 
								End Site
								{
									OFFSET 0.0 0.0 0.0
								}
							}
						}
					}
				}
				JOINT Shoulder_R
				{
					OFFSET 12.9945 -0.242716 -4.98039
					CHANNELS 6 Xposition Yposition Zposition Zrotation Xrotation Yrotation 
					JOINT UpperArm_R
					{
						OFFSET -5.34813 0.0 0.0
						CHANNELS 6 Xposition Yposition Zposition Zrotation Xrotation Yrotation 
						JOINT LowerArm_R
						{
							OFFSET -24.3289 0.000322201 0.0
							CHANNELS 6 Xposition Yposition Zposition Zrotation Xrotation Yrotation 
							JOINT Hand_R
							{
								OFFSET -22.2915 -0.000108084 0.0
								CHANNELS 6 Xposition Yposition Zposition Zrotation Xrotation Yrotation 
								End Site
								{
									OFFSET 0.0 0.0 0.0
								}
							}
						}
					}
				}
			}
		}
		JOINT UpperLeg_L
		{
			OFFSET -2.19248 -6.46944 0.0
			CHANNELS 6 Xposition Yposition Zposition Zrotation Xrotation Yrotation 
			JOINT LowerLeg_L
			{
				OFFSET 39.0811 0.0 -1.23785e-05
				CHANNELS 6 Xposition Yposition Zposition Zrotation Xrotation Yrotation 
				JOINT Foot_L
				{
					OFFSET 40.9854 0.0 -1.26872e-05
					CHANNELS 6 Xposition Yposition Zposition Zrotation Xrotation Yrotation 
					JOINT Toes_L
					{
						OFFSET 11.7543 0.0 0.0
						CHANNELS 6 Xposition Yposition Zposition Zrotation Xrotation Yrotation 
						End Site
						{
							OFFSET 0.0 0.0 0.0
						}
					}
				}
			}
		}
		JOINT UpperLeg_R
		{
			OFFSET -2.19251 6.46944 0.0
			CHANNELS 6 Xposition Yposition Zposition Zrotation Xrotation Yrotation 
			JOINT LowerLeg_R
			{
				OFFSET -39.0811 -0.00228153 -0.0401928
				CHANNELS 6 Xposition Yposition Zposition Zrotation Xrotation Yrotation 
				JOINT Foot_R
				{
					OFFSET -40.9854 0.0 0.0
					CHANNELS 6 Xposition Yposition Zposition Zrotation Xrotation Yrotation 
					JOINT Toes_R
					{
						OFFSET -11.7543 0.0 0.0
						CHANNELS 6 Xposition Yposition Zposition Zrotation Xrotation Yrotation 
						End Site
						{
							OFFSET 0.0 0.0 0.0
						}
					}
				}
			}
		}
	}
}
MOTION
Frames:	5
Frame Time:	0.0333333
0.000000 0.000000 0.000000 0.000000 0.000000 -0.000000 -1.025390 92.067100 -1.796990 87.679800 -1.485990 4.309870 15.735700 0.000005 -0.000001 83.521600 84.574500 -82.797200 8.984550 -0.406207 -0.000000 3.024570 -1.253000 1.480580 16.377300 -0.000001 -0.000001 5.118480 -1.532560 1.693280 6.456720 -0.000001 -0.000000 4.900820 -0.655598 -1.323330 12.994200 -0.242716 4.980390 -90.155500 0.469047 -71.654200 5.348090 -0.000007 -0.000001 -65.112500 39.663300 -12.917900 24.328600 0.000019 0.000005 3.747750 7.003480 -28.245400 22.291600 -0.000001 0.000005 7.737570 5.650550 -15.068100 12.994500 -0.242716 -4.980390 87.856100 6.220530 -70.940700 -5.348130 -0.000001 -0.000004 -65.637200 30.540000 -12.281000 -24.328900 0.000322 -0.000009 0.275035 0.786210 -19.349100 -22.291500 -0.000108 -0.000004 4.101920 5.559160 -9.146080 -2.192480 -6.469440 -0.000000 -168.927000 -19.171000 -2.591940 39.081100 -0.000007 -0.000012 -0.171926 0.408210 22.839500 40.985400 -0.000006 -0.000013 -5.951250 0.259008 -63.576600 11.754300 -0.000000 0.000003 -0.000096 -0.000993 -16.615700 -2.192510 6.469440 -0.000001 173.983000 23.855000 -179.971000 -39.081100 -0.002282 -0.040193 -0.038497 0.115786 19.858300 -40.985400 0.000008 0.000006 -3.035340 3.463960 -63.023800 -11.754300 -0.000006 -0.000006 -0.003410 -0.045155 -18.409600
0.000000 0.000000 0.000000 0.000000 0.000000 -0.000000 -1.031920 92.054700 -1.810570 87.698100 -1.492170 4.356500 15.735700 0.000005 -0.000001 83.739800 84.573000 -83.031600 8.984550 -0.406207 -0.000000 3.031630 -1.211600 1.447020 16.377300 -0.000001 -0.000001 5.105550 -1.531030 1.723980 6.456720 -0.000001 -0.000000 4.898940 -0.642739 -1.372120 12.994200 -0.242716 4.980390 -90.162400 0.488783 -71.626400 5.348090 -0.000007 -0.000001 -63.699000 40.940700 -13.444400 24.328600 0.000019 0.000005 4.033810 7.186000 -29.411300 22.291600 -0.000001 0.000005 7.554460 5.652520 -15.262800 12.994500 -0.242716 -4.980390 87.867900 6.193140 -70.960100 -5.348130 -0.000001 -0.000004 -64.684300 30.979800 -12.810500 -24.328900 0.000322 -0.000009 0.386363 1.059650 -20.079400 -22.291500 -0.000108 -0.000004 3.985980 5.560600 -9.216560 -2.192480 -6.469440 -0.000000 -168.926000 -19.212100 -2.603180 39.081100 -0.000007 -0.000012 -0.172435 0.407711 22.925400 40.985400 -0.000006 -0.000013 -5.947060 0.265173 -63.595800 11.754300 -0.000000 0.000003 -0.000092 -0.000956 -16.614300 -2.192510 6.469440 -0.000001 173.920000 23.848200 -179.939000 -39.081100 -0.002282 -0.040193 -0.043123 0.128355 19.892600 -40.985400 0.000008 0.000006 -3.285310 3.518680 -63.012000 -11.754300 -0.000006 -0.000006 -0.003495 -0.046081 -18.447300
0.000000 0.000000 0.000000 0.000000 0.000000 -0.000000 -1.042500 92.056000 -1.818160 87.686900 -1.500850 4.422360 15.735700 0.000005 -0.000001 84.071300 84.563500 -83.370400 8.984550 -0.406207 -0.000000 3.056720 -1.150720 1.431000 16.377300 -0.000001 -0.000001 5.091220 -1.463010 1.716840 6.456720 -0.000001 -0.000000 4.919640 -0.662289 -1.382400 12.994200 -0.242716 4.980390 -90.155600 0.467069 -71.571500 5.348090 -0.000007 -0.000001 -61.774700 42.673300 -14.162500 24.328600 0.000019 0.000005 4.317120 7.190110 -31.096000 22.291600 -0.000001 0.000005 7.557580 5.657040 -15.724600 12.994500 -0.242716 -4.980390 87.875500 6.157160 -70.921500 -5.348130 -0.000001 -0.000004 -63.444700 31.086400 -13.502800 -24.328900 0.000322 -0.000009 0.392656 1.012030 -21.258100 -22.291500 -0.000108 -0.000004 4.099110 5.561490 -9.260660 -2.192480 -6.469440 -0.000000 -168.875000 -19.211300 -2.514680 39.081100 -0.000007 -0.000012 -0.173699 0.411113 22.904700 40.985400 -0.000006 -0.000013 -5.953940 0.298029 -63.587800 11.754300 -0.000000 0.000003 -0.000090 -0.000943 -16.613800 -2.192510 6.469440 -0.000001 173.923000 23.853500 -179.887000 -39.081100 -0.002282 -0.040193 -0.041264 0.123066 19.914800 -40.985400 0.000008 0.000006 -3.187690 3.507250 -63.028500 -11.754300 -0.000006 -0.000006 -0.003669 -0.047948 -18.523400
0.000000 0.000000 0.000000 0.000000 0.000000 -0.000000 -1.047910 92.049200 -1.825380 87.670800 -1.472270 4.523980 15.735700 0.000005 -0.000001 84.060500 84.535500 -83.364600 8.984550 -0.406207 -0.000000 3.112220 -1.157970 1.421870 16.377300 -0.000001 -0.000001 5.104850 -1.418990 1.717090 6.456720 -0.000001 -0.000000 4.957730 -0.605443 -1.491330 12.994200 -0.242716 4.980390 -90.147700 0.441344 -71.493200 5.348090 -0.000007 -0.000001 -58.839100 45.307500 -15.310100 24.328600 0.000019 0.000005 4.395470 6.656690 -33.550000 22.291600 -0.000001 0.000005 7.671660 5.662750 -16.385200 12.994500 -0.242716 -4.980390 87.901900 6.063440 -70.872300 -5.348130 -0.000001 -0.000004 -62.008500 30.604200 -14.475500 -24.328900 0.000322 -0.000009 0.397833 0.952615 -22.724000 -22.291500 -0.000108 -0.000004 4.565060 5.559090 -9.143360 -2.192480 -6.469440 -0.000000 -168.822000 -19.158200 -2.452910 39.081100 -0.000007 -0.000012 -0.174295 0.411368 22.962300 40.985400 -0.000006 -0.000013 -5.958670 0.303384 -63.605800 11.754300 -0.000000 0.000003 -0.000097 -0.001004 -16.616100 -2.192510 6.469440 -0.000001 173.891000 23.909500 -179.800000 -39.081100 -0.002282 -0.040193 -0.042120 0.125085 19.965200 -40.985400 0.000008 0.000006 -3.173260 3.518890 -63.048800 -11.754300 -0.000006 -0.000006 -0.003383 -0.044866 -18.397900
0.000000 0.000000 0.000000 0.000000 0.000000 -0.000000 -1.046950 92.050400 -1.846560 87.689100 -1.456970 4.585670 15.735700 0.000005 -0.000001 84.095700 84.531600 -83.419600 8.984550 -0.406207 -0.000000 3.120480 -1.151240 1.382180 16.377300 -0.000001 -0.000001 5.150350 -1.375710 1.718760 6.456720 -0.000001 -0.000000 4.931930 -0.553287 -1.582640 12.994200 -0.242716 4.980390 -90.121200 0.360901 -71.432300 5.348090 -0.000007 -0.000001 -55.225800 48.295400 -16.575300 24.328600 0.000019 0.000005 4.841730 6.409790 -37.187500 22.291600 -0.000001 0.000005 7.906130 5.668330 -17.125300 12.994500 -0.242716 -4.980390 87.900000 6.026800 -70.748400 -5.348130 -0.000001 -0.000004 -60.065300 29.665800 -15.796000 -24.328900 0.000322 -0.000009 0.440086 0.967291 -24.516900 -22.291500 -0.000108 -0.000004 5.115200 5.556850 -9.033460 -2.192480 -6.469440 -0.000000 -168.833000 -19.137500 -2.403750 39.081100 -0.000007 -0.000012 -0.173552 0.409779 22.954100 40.985400 -0.000006 -0.000013 -5.950720 0.291006 -63.589100 11.754300 -0.000000 0.000003 -0.000088 -0.000922 -16.613000 -2.192510 6.469440 -0.000001 173.854000 23.877400 -179.752000 -39.081100 -0.002282 -0.040193 -0.041549 0.123431 19.977600 -40.985400 0.000008 0.000006 -3.171150 3.513500 -63.048600 -11.754300 -0.000006 -0.000006 -0.003321 -0.044186 -18.370200
